# xmcd
#
# Track frame offsets:
# 150
# 17454
# 34413
# 52336
# 70246
# 86143
# 107009
# 125569
# 143962
# 162261
# 179373
# 188819
# 196638
# 204925
# 216247
# 234247
# 244824
# 257597
# 271560
# 281935
# 295842
#
# Disc length: 4161 seconds
#
#
# Revision: 0
# Processed by: cddbd v1.5.2PL0 Copyright (c) Steve Scherf et al.
# Submitted via: FreeRIP 2.951 
#
DISCID=39103f15
DTITLE=Mato Grosso e Mathias - Léo Canhoto e Robertinho - A voz Sertaneja
DYEAR=2004
DGENRE=Country
TTITLE0=24 Horas de Amor
TTITLE1=Boate Azul
TTITLE2=De igual pra igual
TTITLE3=Enquanto o sol Brilhar
TTITLE4=Espinhos na cama
TTITLE5=Frente a frente
TTITLE6=Idas e voltas
TTITLE7=Memórias
TTITLE8=Na hora do Adeus
TTITLE9=Pele de maça
TTITLE10=A gaivota
TTITLE11=A marreca
TTITLE12=Despeito
TTITLE13=Esteio da nação
TTITLE14=Jack o Matador
TTITLE15=Lição de moral
TTITLE16=Longe dos olhos perto do coração
TTITLE17=Mão de ferro
TTITLE18=Meu irmão da roça
TTITLE19=Meu telefone
TTITLE20=Meu velho pai
EXTD=
EXTT0=Mato Grosso e Mathias
EXTT1=Mato Grosso e Mathias
EXTT2=Mato Grosso e Mathias
EXTT3=
EXTT4=Mato Grosso e Mathias
EXTT5=Mato Grosso e Mathias
EXTT6=Mato Grosso e Mathias
EXTT7=Mato Grosso e Mathias
EXTT8=Mato Grosso e Mathias
EXTT9=Mato Grosso e Mathias
EXTT10=Léo Canhoto e Robertinho
EXTT11=Léo Canhoto e Robertinho
EXTT12=Léo Canhoto e Robertinho
EXTT13=Léo Canhoto e Robertinho
EXTT14=Léo Canhoto e Robertinho
EXTT15=Léo Canhoto e Robertinho
EXTT16=Léo Canhoto e Robertinho
EXTT17=Léo Canhoto e Robertinho
EXTT18=Léo Canhoto e Robertinho
EXTT19=Léo Canhoto e Robertinho
EXTT20=Léo Canhoto e Robertinho
PLAYORDER=
